<svg xmlns="http://www.w3.org/2000/svg" data-name="Layer 1" viewBox="0 0 120 120" x="0px" y="0px"><title>maps3</title>
<g fill="#FFFFFF" stroke="#FFFFFF" stroke-width="2">
    <circle cx="60" cy="60" r="55" fill="#FF0000" />
    </g>
    <path d="M47.56,65.52a1,1,0,0,0,.43-.71,1,1,0,0,0-.27-.8L46,62.14l3.31-.28a1,1,0,0,0,.9-.85l.6-4L54.39,54a1,1,0,0,0,.32-.51l.8-3a1,1,0,0,0-.3-1l-3.69-3.32-2-6.81a1,1,0,0,0-.5-.6l-3.9-2.05a1,1,0,0,0-.84,0L41,37.9a1,1,0,0,0-.58,1.22l1.7,5.47-.58,2a1,1,0,0,0,.11.81,1,1,0,0,0,.68.45l3.82.64c.55,1.31,1.09,2.65,1.33,3.3-.43.52-1.36,1.54-2,2.26l-1.34,1.48c-.43-.38-1-.91-1.57-1.45l1.14-3a1,1,0,0,0-.56-1.29l-2-.79a1,1,0,0,0-.81,0L36,51.23A1,1,0,0,0,36.84,53l4-1.92.65.26-1,2.65a1,1,0,0,0,.24,1.09c3.25,3.1,3.32,3.07,4,2.78a1,1,0,0,0,.5-.46c.21-.28,1.11-1.27,1.77-2,2.64-2.91,2.64-3,2.64-3.44,0-.23,0-.46-1.79-4.75a1,1,0,0,0-.76-.6l-3.26-.54.35-1.24a1,1,0,0,0,0-.58L42.6,39.41l2-.81,3.12,1.64,1.93,6.67a1.12,1.12,0,0,0,.3.47l3.45,3.1-.56,2.15-3.66,3.1a1,1,0,0,0-.35.61l-.54,3.59-4.58.4a1,1,0,0,0-.84.64,1,1,0,0,0,.2,1l2.38,2.52L41.87,67a1,1,0,0,0-.27.28l-1.32,2-2.29-1-1.08-2.07,2.27-5.89,1.43-.69a1,1,0,1,0-.86-1.8L38,58.64a1,1,0,0,0-.5.54l-2.58,6.68a1,1,0,0,0,0,.82l1.45,2.78a1,1,0,0,0,.48.45l3.37,1.52a1,1,0,0,0,.41.09,1,1,0,0,0,.84-.45l1.68-2.55Z"/><path d="M55.9,99.92l-3.56-7.11,3.08-6.63,2.31-.39L59,87.92l-.82,1.88L57,89.43a1,1,0,0,0-.63,1.89l2,.66a1,1,0,0,0,1.24-.54L61,88.26a1,1,0,0,0-.06-.9l-1.85-3.18a1,1,0,0,0-1-.48l-3.51.59a1,1,0,0,0-.74.57L50.32,92.4a1,1,0,0,0,0,.87l3.45,6.9-1.3,1.3-2.31-2.28a1,1,0,0,0-.77-.28l-5.09.33-.53-3,2.69-1.76a1,1,0,0,0,.44-.64l1-5a1,1,0,0,0-.2-.82l-4-5,.33-1.94a1,1,0,0,0,0-.17v-7l2.9-.79a1,1,0,0,0,.55-.38c7.21-9.93,7.21-10.17,7.21-10.58V59.43l2.36-3.8a1,1,0,1,0-1.7-1.06l-2.51,4a1,1,0,0,0-.15.53v2.74c-.65,1.06-4.25,6.08-6.62,9.36l-3.3.9a1,1,0,0,0-.74,1v7.73l-.38,2.3a1,1,0,0,0,.2.78l4,5L45,93,42.15,94.9a1,1,0,0,0-.44,1l.79,4.56a1,1,0,0,0,1.06.83l5.54-.37,2.69,2.66a1,1,0,0,0,.7.29,1,1,0,0,0,.71-.29l2.51-2.52A1,1,0,0,0,55.9,99.92Z"/><path d="M94.93,44.35,91.41,43.3l.26-2.86a1,1,0,0,0-.38-.88L89.37,38l1.5-3.6a1,1,0,0,0-1.3-1.31l-2.85,1.15L83,33.67a.89.89,0,0,0-.23,0l-2.44.15L80,32.88h1.6a1,1,0,0,0,.75-.35L84,30.63l1.75-.91a1,1,0,0,0,.54-.9l-.06-5.23a1.06,1.06,0,0,0-.4-.79l-2.92-2.18a1,1,0,0,0-.6-.2h-3.9a1,1,0,0,0-.78.38l-2,2.53-5.17-.75-2.84-1.86-2.44-4.47,1.36-3.54a1,1,0,0,0-.2-1,1,1,0,0,0-1-.29l-4.12,1.12L58,11.78a1,1,0,0,0-.65.07L53.05,13.9l-.11.06-3.11,2a1,1,0,0,0-.45.72l-.21,1.71L46,20.83a1,1,0,0,0-.35,1.07l.08.26-2.46-.77a1,1,0,0,0-1,.27L40,24a1,1,0,0,0-.23,1l.33,1.06-1.77,1.36a.85.85,0,0,0-.16.17l-.3.36-1-1.44v-1.4a1,1,0,0,0-.82-1l-2.25-.4a1,1,0,0,0-1.09.58l-1.59,3.5a1,1,0,0,0,.06.93l1.14,1.88-.21,1.53-1.43-1.4a1.09,1.09,0,0,0-.59-.28l-3.84-.39a1,1,0,0,0-1.1.86l-.72,5.43a1,1,0,0,0,.38.92l4,3L27,46.7a1,1,0,0,0,.27,1l4.89,4.71L30.51,56.6a1,1,0,1,0,1.87.71l1.85-4.83A1,1,0,0,0,34,51.4l-4.93-4.75,1.76-6.44a1,1,0,0,0-.36-1.06l-4-3.08L27,32.18l2.52.26L32.07,35a1,1,0,0,0,1,.23,1,1,0,0,0,.67-.81l.53-3.83a1,1,0,0,0-.14-.66l-1-1.73,1-2.32.66.11v.89a1,1,0,0,0,.19.58l2,2.78a1,1,0,0,0,.79.42,1,1,0,0,0,.81-.38L39.63,29l2.22-1.72a1,1,0,0,0,.35-1.08L41.84,25l1.42-1.5,3.64,1.13a1,1,0,0,0,1.26-1.23L47.75,22l3-2.29A1,1,0,0,0,51.1,19l.2-1.65L54,15.68l4-1.88,3.08.72a1,1,0,0,0,.49,0L64,13.84,63.14,16a1,1,0,0,0,0,.83L66,21.9a1.14,1.14,0,0,0,.33.36l3.24,2.11a1,1,0,0,0,.41.16l6,.86a1,1,0,0,0,.92-.37l2.08-2.6H82l2.25,1.69,0,4.12-1.37.71a.8.8,0,0,0-.29.23l-1.49,1.71H78.56a1,1,0,0,0-.82.43,1,1,0,0,0-.11.92l1.12,3a1,1,0,0,0,1,.64l3.06-.19,3.86.64a1,1,0,0,0,.54-.06l.89-.36L87.23,38a1,1,0,0,0,.31,1.17l2.09,1.65-.28,3.13a1,1,0,0,0,.7,1l2.56.76-.54.47a1,1,0,0,0-.35.75v2.8l-4.37,2a1,1,0,0,0-.4.34L83.7,56.64a1,1,0,0,0-.13.89l.67,2.08-2.35,2.33a1,1,0,0,0-.23.37L75.83,78.66a1,1,0,0,0,.14.93l2,2.64L76.17,88l-2.93,6.49-.5-1.23a1,1,0,0,0-.71-.59l-3.57-.8a1,1,0,0,0-.94.28L64.88,94.9a1,1,0,0,0-.06,1.34L67.07,99l-2,.81a1,1,0,0,0-.46.38l-2.48,3.78L59,105.29,60.73,99a1,1,0,0,0-.08-.73l-2-3.73a1,1,0,0,0-1.77.93l1.78,3.38-1.79,6.39L55.27,107a1,1,0,0,0-.09,1.26,1,1,0,0,0,.82.43,1.09,1.09,0,0,0,.39-.08l6.82-2.92a.93.93,0,0,0,.44-.37l2.48-3.77,3-1.21a1,1,0,0,0,.59-.68,1,1,0,0,0-.2-.88l-2.54-3.08L68.57,94l2.52.56,1.19,2.89a1,1,0,0,0,.91.62,1,1,0,0,0,.92-.59L78,88.8a.56.56,0,0,0,0-.12L80,82.33a1,1,0,0,0-.15-.89L77.9,78.83,83.46,63.2l2.62-2.6a1,1,0,0,0,.25-1l-.71-2.19,2.8-3.94,4.72-2.13a1,1,0,0,0,.58-.92v-3l1.58-1.35a1,1,0,0,0-.37-1.72Z"/><path d="M75.06,70.42a1,1,0,0,0,.94-.67l5.49-15.4a1,1,0,1,0-1.88-.67l-5.49,15.4a1,1,0,0,0,.61,1.28A1,1,0,0,0,75.06,70.42Z"/><path d="M72.77,72.87l-1.24,3.48a1,1,0,0,0,.61,1.28,1,1,0,0,0,.33.05,1,1,0,0,0,1-.66l1.24-3.48a1,1,0,0,0-.61-1.28A1,1,0,0,0,72.77,72.87Z"/></svg>
